<svg width="72" height="12" viewBox="0 0 72 12" fill="none" xmlns="http://www.w3.org/2000/svg">
<path d="M7.20102 7.51099L5.62602 3.42999C5.57935 3.30865 5.53035 3.16865 5.47902 3.00998C5.42768 2.84665 5.37868 2.67399 5.33202 2.49198C5.23402 2.86998 5.13368 3.18498 5.03102 3.43698L3.45602 7.51099H7.20102ZM10.029 11.235H8.97902C8.85768 11.235 8.75968 11.2047 8.68502 11.144C8.61035 11.0833 8.55435 11.0063 8.51702 10.913L7.57902 8.49099H3.07802L2.14002 10.913C2.11202 10.997 2.05835 11.0717 1.97902 11.137C1.89968 11.2023 1.80168 11.235 1.68502 11.235H0.635018L4.64602 1.20398H6.01802L10.029 11.235ZM15.5242 5.83099C15.2909 5.51832 15.0389 5.30132 14.7682 5.17998C14.4976 5.05399 14.1942 4.99099 13.8582 4.99099C13.2002 4.99099 12.6939 5.22665 12.3392 5.69799C11.9846 6.16932 11.8072 6.84132 11.8072 7.71399C11.8072 8.17599 11.8469 8.57265 11.9262 8.90399C12.0056 9.23065 12.1222 9.50132 12.2762 9.71599C12.4302 9.92599 12.6192 10.08 12.8432 10.178C13.0672 10.276 13.3216 10.325 13.6062 10.325C14.0169 10.325 14.3739 10.2317 14.6772 10.045C14.9852 9.85832 15.2676 9.59465 15.5242 9.25399V5.83099ZM16.7702 0.923985V11.235H16.0282C15.8509 11.235 15.7389 11.1487 15.6922 10.976L15.5802 10.115C15.2769 10.479 14.9316 10.773 14.5442 10.997C14.1569 11.221 13.7089 11.333 13.2002 11.333C12.7942 11.333 12.4256 11.256 12.0942 11.102C11.7629 10.9433 11.4806 10.7123 11.2472 10.409C11.0139 10.1057 10.8342 9.72765 10.7082 9.27499C10.5822 8.82232 10.5192 8.30199 10.5192 7.71399C10.5192 7.19132 10.5892 6.70599 10.7292 6.25799C10.8692 5.80532 11.0699 5.41332 11.3312 5.08198C11.5926 4.75065 11.9122 4.49165 12.2902 4.30498C12.6729 4.11365 13.1022 4.01799 13.5782 4.01799C14.0122 4.01799 14.3832 4.09265 14.6912 4.24198C15.0039 4.38665 15.2816 4.58965 15.5242 4.85098V0.923985H16.7702ZM23.3582 5.83099C23.1249 5.51832 22.8729 5.30132 22.6022 5.17998C22.3316 5.05399 22.0282 4.99099 21.6922 4.99099C21.0342 4.99099 20.5279 5.22665 20.1732 5.69799C19.8186 6.16932 19.6412 6.84132 19.6412 7.71399C19.6412 8.17599 19.6809 8.57265 19.7602 8.90399C19.8396 9.23065 19.9562 9.50132 20.1102 9.71599C20.2642 9.92599 20.4532 10.08 20.6772 10.178C20.9012 10.276 21.1556 10.325 21.4402 10.325C21.8509 10.325 22.2079 10.2317 22.5112 10.045C22.8192 9.85832 23.1016 9.59465 23.3582 9.25399V5.83099ZM24.6042 0.923985V11.235H23.8622C23.6849 11.235 23.5729 11.1487 23.5262 10.976L23.4142 10.115C23.1109 10.479 22.7656 10.773 22.3782 10.997C21.9909 11.221 21.5429 11.333 21.0342 11.333C20.6282 11.333 20.2596 11.256 19.9282 11.102C19.5969 10.9433 19.3146 10.7123 19.0812 10.409C18.8479 10.1057 18.6682 9.72765 18.5422 9.27499C18.4162 8.82232 18.3532 8.30199 18.3532 7.71399C18.3532 7.19132 18.4232 6.70599 18.5632 6.25799C18.7032 5.80532 18.9039 5.41332 19.1652 5.08198C19.4266 4.75065 19.7462 4.49165 20.1242 4.30498C20.5069 4.11365 20.9362 4.01799 21.4122 4.01799C21.8462 4.01799 22.2172 4.09265 22.5252 4.24198C22.8379 4.38665 23.1156 4.58965 23.3582 4.85098V0.923985H24.6042ZM32.3312 11.347C31.7712 11.347 31.3396 11.1907 31.0362 10.878C30.7376 10.5653 30.5882 10.115 30.5882 9.52699V5.18699H29.7342C29.6596 5.18699 29.5966 5.16599 29.5452 5.12399C29.4939 5.07732 29.4682 5.00732 29.4682 4.91398V4.41699L30.6302 4.26998L30.9172 2.07898C30.9312 2.00898 30.9616 1.95298 31.0082 1.91099C31.0596 1.86432 31.1249 1.84099 31.2042 1.84099H31.8342V4.28399H33.8852V5.18699H31.8342V9.44299C31.8342 9.74165 31.9066 9.96332 32.0512 10.108C32.1959 10.2527 32.3826 10.325 32.6112 10.325C32.7419 10.325 32.8539 10.3087 32.9472 10.276C33.0452 10.2387 33.1292 10.199 33.1992 10.157C33.2692 10.115 33.3276 10.0777 33.3742 10.045C33.4256 10.0077 33.4699 9.98899 33.5072 9.98899C33.5726 9.98899 33.6309 10.0287 33.6822 10.108L34.0462 10.703C33.8316 10.9037 33.5726 11.0623 33.2692 11.179C32.9659 11.291 32.6532 11.347 32.3312 11.347ZM38.1198 4.03199C38.6378 4.03199 39.1045 4.11832 39.5198 4.29099C39.9351 4.46365 40.2898 4.70865 40.5838 5.02599C40.8778 5.34332 41.1018 5.72832 41.2558 6.18098C41.4145 6.62898 41.4938 7.13065 41.4938 7.68599C41.4938 8.24599 41.4145 8.74999 41.2558 9.19799C41.1018 9.64599 40.8778 10.0287 40.5838 10.346C40.2898 10.6633 39.9351 10.9083 39.5198 11.081C39.1045 11.249 38.6378 11.333 38.1198 11.333C37.5971 11.333 37.1258 11.249 36.7058 11.081C36.2905 10.9083 35.9358 10.6633 35.6418 10.346C35.3478 10.0287 35.1215 9.64599 34.9628 9.19799C34.8088 8.74999 34.7318 8.24599 34.7318 7.68599C34.7318 7.13065 34.8088 6.62898 34.9628 6.18098C35.1215 5.72832 35.3478 5.34332 35.6418 5.02599C35.9358 4.70865 36.2905 4.46365 36.7058 4.29099C37.1258 4.11832 37.5971 4.03199 38.1198 4.03199ZM38.1198 10.36C38.8198 10.36 39.3425 10.1267 39.6878 9.65999C40.0331 9.18865 40.2058 8.53299 40.2058 7.69299C40.2058 6.84832 40.0331 6.19032 39.6878 5.71899C39.3425 5.24765 38.8198 5.01198 38.1198 5.01198C37.7651 5.01198 37.4548 5.07265 37.1888 5.19399C36.9275 5.31532 36.7081 5.49032 36.5308 5.71899C36.3581 5.94765 36.2275 6.22999 36.1388 6.56598C36.0548 6.89732 36.0128 7.27299 36.0128 7.69299C36.0128 8.53299 36.1855 9.18865 36.5308 9.65999C36.8808 10.1267 37.4105 10.36 38.1198 10.36ZM53.9922 9.16299C54.0669 9.16299 54.1322 9.19332 54.1882 9.25399L54.7272 9.83499C54.3165 10.311 53.8172 10.682 53.2292 10.948C52.6459 11.214 51.9389 11.347 51.1082 11.347C50.3895 11.347 49.7362 11.2233 49.1482 10.976C48.5602 10.724 48.0585 10.374 47.6432 9.92599C47.2279 9.47332 46.9059 8.93199 46.6772 8.30199C46.4485 7.67199 46.3342 6.97899 46.3342 6.22299C46.3342 5.46699 46.4532 4.77399 46.6912 4.14399C46.9292 3.51399 47.2629 2.97265 47.6922 2.51999C48.1262 2.06732 48.6442 1.71732 49.2462 1.46998C49.8482 1.21798 50.5132 1.09198 51.2412 1.09198C51.9552 1.09198 52.5852 1.20632 53.1312 1.43498C53.6772 1.66365 54.1579 1.97398 54.5732 2.36598L54.1252 2.98898C54.0972 3.03565 54.0599 3.07532 54.0132 3.10799C53.9712 3.13598 53.9129 3.14998 53.8382 3.14998C53.7542 3.14998 53.6515 3.10565 53.5302 3.01699C53.4089 2.92365 53.2502 2.82099 53.0542 2.70898C52.8582 2.59698 52.6132 2.49665 52.3192 2.40799C52.0252 2.31465 51.6635 2.26799 51.2342 2.26799C50.7162 2.26799 50.2425 2.35899 49.8132 2.54098C49.3839 2.71832 49.0129 2.97732 48.7002 3.31799C48.3922 3.65865 48.1519 4.07398 47.9792 4.56398C47.8065 5.05398 47.7202 5.60699 47.7202 6.22299C47.7202 6.84832 47.8089 7.40599 47.9862 7.89599C48.1682 8.38599 48.4132 8.80132 48.7212 9.14199C49.0339 9.47799 49.4002 9.73465 49.8202 9.91199C50.2449 10.0893 50.7022 10.178 51.1922 10.178C51.4909 10.178 51.7592 10.1617 51.9972 10.129C52.2399 10.0917 52.4615 10.0357 52.6622 9.96099C52.8675 9.88632 53.0565 9.79299 53.2292 9.68099C53.4065 9.56432 53.5815 9.42665 53.7542 9.26799C53.8335 9.19799 53.9129 9.16299 53.9922 9.16299ZM59.8508 8.04299C59.2768 8.06165 58.7868 8.10832 58.3808 8.18299C57.9794 8.25299 57.6504 8.34632 57.3938 8.46299C57.1418 8.57965 56.9574 8.71732 56.8408 8.87599C56.7288 9.03465 56.6728 9.21199 56.6728 9.40799C56.6728 9.59465 56.7031 9.75565 56.7638 9.89099C56.8244 10.0263 56.9061 10.1383 57.0088 10.227C57.1161 10.311 57.2398 10.374 57.3798 10.416C57.5244 10.4533 57.6784 10.472 57.8418 10.472C58.0611 10.472 58.2618 10.451 58.4438 10.409C58.6258 10.3623 58.7961 10.297 58.9548 10.213C59.1181 10.129 59.2721 10.0287 59.4168 9.91199C59.5661 9.79532 59.7108 9.66232 59.8508 9.51299V8.04299ZM55.8258 5.14498C56.2178 4.76699 56.6401 4.48465 57.0928 4.29798C57.5454 4.11132 58.0471 4.01799 58.5978 4.01799C58.9944 4.01799 59.3468 4.08332 59.6548 4.21399C59.9628 4.34465 60.2218 4.52665 60.4318 4.75998C60.6418 4.99332 60.8004 5.27565 60.9078 5.60699C61.0151 5.93832 61.0688 6.30232 61.0688 6.69899V11.235H60.5158C60.3944 11.235 60.3011 11.2163 60.2358 11.179C60.1704 11.137 60.1191 11.0577 60.0818 10.941L59.9418 10.269C59.7551 10.4417 59.5731 10.5957 59.3958 10.731C59.2184 10.8617 59.0318 10.9737 58.8358 11.067C58.6398 11.1557 58.4298 11.2233 58.2058 11.27C57.9864 11.3213 57.7414 11.347 57.4708 11.347C57.1954 11.347 56.9364 11.3097 56.6938 11.235C56.4511 11.1557 56.2388 11.039 56.0568 10.885C55.8794 10.731 55.7371 10.5373 55.6298 10.304C55.5271 10.066 55.4758 9.78599 55.4758 9.46399C55.4758 9.18399 55.5528 8.91565 55.7068 8.65899C55.8608 8.39765 56.1104 8.16665 56.4558 7.96599C56.8011 7.76532 57.2514 7.60199 57.8068 7.47599C58.3621 7.34532 59.0434 7.27065 59.8508 7.25199V6.69899C59.8508 6.14832 59.7318 5.73299 59.4938 5.45299C59.2558 5.16832 58.9081 5.02599 58.4508 5.02599C58.1428 5.02599 57.8838 5.06565 57.6738 5.14498C57.4684 5.21965 57.2888 5.30599 57.1348 5.40398C56.9854 5.49732 56.8548 5.58365 56.7428 5.66298C56.6354 5.73765 56.5281 5.77499 56.4208 5.77499C56.3368 5.77499 56.2644 5.75399 56.2038 5.71199C56.1431 5.66532 56.0918 5.60932 56.0498 5.54399L55.8258 5.14498ZM64.1497 5.56498C64.3737 5.07965 64.6491 4.70165 64.9757 4.43098C65.3024 4.15565 65.7014 4.01799 66.1727 4.01799C66.3221 4.01799 66.4644 4.03432 66.5997 4.06699C66.7397 4.09965 66.8634 4.15098 66.9707 4.22098L66.8797 5.15199C66.8517 5.26865 66.7817 5.32699 66.6697 5.32699C66.6044 5.32699 66.5087 5.31299 66.3827 5.28499C66.2567 5.25698 66.1144 5.24298 65.9557 5.24298C65.7317 5.24298 65.5311 5.27565 65.3537 5.34098C65.1811 5.40632 65.0247 5.50432 64.8847 5.63499C64.7494 5.76099 64.6257 5.91965 64.5137 6.11098C64.4064 6.29765 64.3084 6.51232 64.2197 6.75499V11.235H62.9667V4.14399H63.6807C63.8161 4.14399 63.9094 4.16965 63.9607 4.22098C64.0121 4.27232 64.0471 4.36098 64.0657 4.48699L64.1497 5.56498ZM70.2433 11.347C69.6833 11.347 69.2517 11.1907 68.9483 10.878C68.6497 10.5653 68.5003 10.115 68.5003 9.52699V5.18699H67.6463C67.5717 5.18699 67.5087 5.16599 67.4573 5.12399C67.406 5.07732 67.3803 5.00732 67.3803 4.91398V4.41699L68.5423 4.26998L68.8293 2.07898C68.8433 2.00898 68.8737 1.95298 68.9203 1.91099C68.9717 1.86432 69.037 1.84099 69.1163 1.84099H69.7463V4.28399H71.7973V5.18699H69.7463V9.44299C69.7463 9.74165 69.8187 9.96332 69.9633 10.108C70.108 10.2527 70.2947 10.325 70.5233 10.325C70.654 10.325 70.766 10.3087 70.8593 10.276C70.9573 10.2387 71.0413 10.199 71.1113 10.157C71.1813 10.115 71.2397 10.0777 71.2863 10.045C71.3377 10.0077 71.382 9.98899 71.4193 9.98899C71.4847 9.98899 71.543 10.0287 71.5943 10.108L71.9583 10.703C71.7437 10.9037 71.4847 11.0623 71.1813 11.179C70.878 11.291 70.5653 11.347 70.2433 11.347Z" fill="white"/>
</svg>
